<svg width="40" height="40" viewBox="0 0 40 40" fill="none" xmlns="http://www.w3.org/2000/svg">
<g clip-path="url(#clip0)">
<g filter="url(#filter0_dd)">
<rect x="2" y="3" width="35" height="35" rx="17.5" fill="white"/>
</g>
<path d="M19.88 32.28C18.1467 32.28 16.4533 32.0533 14.8 31.6C13.1467 31.1467 11.8267 30.5733 10.84 29.88L12.76 26.08C13.72 26.72 14.8667 27.24 16.2 27.64C17.56 28.0133 18.8933 28.2 20.2 28.2C23.1867 28.2 24.68 27.4133 24.68 25.84C24.68 25.0933 24.2933 24.5733 23.52 24.28C22.7733 23.9867 21.56 23.7067 19.88 23.44C18.12 23.1733 16.68 22.8667 15.56 22.52C14.4667 22.1733 13.5067 21.5733 12.68 20.72C11.88 19.84 11.48 18.6267 11.48 17.08C11.48 15.0533 12.32 13.44 14 12.24C15.7067 11.0133 18 10.4 20.88 10.4C22.3467 10.4 23.8133 10.5733 25.28 10.92C26.7467 11.24 27.9467 11.68 28.88 12.24L26.96 16.04C25.1467 14.9733 23.1067 14.44 20.84 14.44C19.3733 14.44 18.2533 14.6667 17.48 15.12C16.7333 15.5467 16.36 16.12 16.36 16.84C16.36 17.64 16.76 18.2133 17.56 18.56C18.3867 18.88 19.6533 19.1867 21.36 19.48C23.0667 19.7467 24.4667 20.0533 25.56 20.4C26.6533 20.7467 27.5867 21.3333 28.36 22.16C29.16 22.9867 29.56 24.16 29.56 25.68C29.56 27.68 28.6933 29.28 26.96 30.48C25.2267 31.68 22.8667 32.28 19.88 32.28Z" fill="#02044A"/>
</g>
<defs>
<filter id="filter0_dd" x="0" y="3" width="39" height="41" filterUnits="userSpaceOnUse" color-interpolation-filters="sRGB">
<feFlood flood-opacity="0" result="BackgroundImageFix"/>
<feColorMatrix in="SourceAlpha" type="matrix" values="0 0 0 0 0 0 0 0 0 0 0 0 0 0 0 0 0 0 127 0"/>
<feMorphology radius="2" operator="erode" in="SourceAlpha" result="effect1_dropShadow"/>
<feOffset dy="4"/>
<feGaussianBlur stdDeviation="2"/>
<feColorMatrix type="matrix" values="0 0 0 0 0.0941176 0 0 0 0 0.152941 0 0 0 0 0.294118 0 0 0 0.08 0"/>
<feBlend mode="normal" in2="BackgroundImageFix" result="effect1_dropShadow"/>
<feColorMatrix in="SourceAlpha" type="matrix" values="0 0 0 0 0 0 0 0 0 0 0 0 0 0 0 0 0 0 127 0"/>
<feMorphology radius="2" operator="erode" in="SourceAlpha" result="effect2_dropShadow"/>
<feOffset dy="2"/>
<feGaussianBlur stdDeviation="2"/>
<feColorMatrix type="matrix" values="0 0 0 0 0.0941176 0 0 0 0 0.152941 0 0 0 0 0.294118 0 0 0 0.12 0"/>
<feBlend mode="normal" in2="effect1_dropShadow" result="effect2_dropShadow"/>
<feBlend mode="normal" in="SourceGraphic" in2="effect2_dropShadow" result="shape"/>
</filter>
<clipPath id="clip0">
<rect width="40" height="40" fill="white"/>
</clipPath>
</defs>
</svg>
